<mxfile host="app.diagrams.net" modified="2022-01-14T09:20:28.165Z" agent="5.0 (Macintosh; Intel Mac OS X 10_15_7) AppleWebKit/537.36 (KHTML, like Gecko) Chrome/97.0.4692.71 Safari/537.36" etag="3zCIUvTwZxQGfK2_lQOD" version="15.9.6" type="github">
  <diagram id="Wa5oBjYjr4noIHMLQoP5" name="001">
    <mxGraphModel dx="652" dy="423" grid="1" gridSize="10" guides="1" tooltips="1" connect="1" arrows="1" fold="1" page="1" pageScale="1" pageWidth="827" pageHeight="1169" math="0" shadow="0">
      <root>
        <mxCell id="0" />
        <mxCell id="1" parent="0" />
        <mxCell id="BYghL89uylHXPIeEzwu4-1" value="Spielfigur" style="shape=umlActor;verticalLabelPosition=bottom;verticalAlign=top;html=1;outlineConnect=0;" vertex="1" parent="1">
          <mxGeometry x="260" y="200" width="30" height="60" as="geometry" />
        </mxCell>
        <mxCell id="BYghL89uylHXPIeEzwu4-2" value="Client" style="shape=umlActor;verticalLabelPosition=bottom;verticalAlign=top;html=1;outlineConnect=0;" vertex="1" parent="1">
          <mxGeometry x="150" y="200" width="30" height="60" as="geometry" />
        </mxCell>
        <mxCell id="BYghL89uylHXPIeEzwu4-3" value="" style="endArrow=none;dashed=1;html=1;rounded=0;" edge="1" parent="1" target="BYghL89uylHXPIeEzwu4-2">
          <mxGeometry width="50" height="50" relative="1" as="geometry">
            <mxPoint x="165" y="340" as="sourcePoint" />
            <mxPoint x="220" y="320" as="targetPoint" />
          </mxGeometry>
        </mxCell>
        <mxCell id="BYghL89uylHXPIeEzwu4-5" value="" style="endArrow=none;dashed=1;html=1;rounded=0;exitX=0.5;exitY=0;exitDx=0;exitDy=0;" edge="1" parent="1" source="BYghL89uylHXPIeEzwu4-9" target="BYghL89uylHXPIeEzwu4-1">
          <mxGeometry width="50" height="50" relative="1" as="geometry">
            <mxPoint x="275" y="320" as="sourcePoint" />
            <mxPoint x="330" y="380" as="targetPoint" />
          </mxGeometry>
        </mxCell>
        <mxCell id="BYghL89uylHXPIeEzwu4-6" value="" style="rounded=0;whiteSpace=wrap;html=1;" vertex="1" parent="1">
          <mxGeometry x="160" y="340" width="10" height="80" as="geometry" />
        </mxCell>
        <mxCell id="BYghL89uylHXPIeEzwu4-8" value="" style="endArrow=classic;html=1;rounded=0;entryX=-0.131;entryY=0.134;entryDx=0;entryDy=0;entryPerimeter=0;" edge="1" parent="1" target="BYghL89uylHXPIeEzwu4-9">
          <mxGeometry width="50" height="50" relative="1" as="geometry">
            <mxPoint x="170" y="348" as="sourcePoint" />
            <mxPoint x="250" y="350" as="targetPoint" />
          </mxGeometry>
        </mxCell>
        <mxCell id="BYghL89uylHXPIeEzwu4-9" value="" style="rounded=0;whiteSpace=wrap;html=1;" vertex="1" parent="1">
          <mxGeometry x="270" y="340" width="10" height="60" as="geometry" />
        </mxCell>
        <mxCell id="BYghL89uylHXPIeEzwu4-10" value="&lt;font style=&quot;font-size: 7px&quot;&gt;leicht verletzen()&lt;/font&gt;" style="text;html=1;strokeColor=none;fillColor=none;align=center;verticalAlign=middle;whiteSpace=wrap;rounded=0;" vertex="1" parent="1">
          <mxGeometry x="190" y="320" width="60" height="30" as="geometry" />
        </mxCell>
        <mxCell id="BYghL89uylHXPIeEzwu4-11" value="" style="rounded=0;whiteSpace=wrap;html=1;" vertex="1" parent="1">
          <mxGeometry x="370" y="350" width="10" height="50" as="geometry" />
        </mxCell>
        <mxCell id="BYghL89uylHXPIeEzwu4-12" value="" style="endArrow=classic;html=1;rounded=0;fontSize=7;" edge="1" parent="1">
          <mxGeometry width="50" height="50" relative="1" as="geometry">
            <mxPoint x="280" y="360" as="sourcePoint" />
            <mxPoint x="370" y="360" as="targetPoint" />
          </mxGeometry>
        </mxCell>
        <mxCell id="BYghL89uylHXPIeEzwu4-13" value="Gesund" style="shape=umlActor;verticalLabelPosition=bottom;verticalAlign=top;html=1;outlineConnect=0;" vertex="1" parent="1">
          <mxGeometry x="360" y="200" width="30" height="60" as="geometry" />
        </mxCell>
        <mxCell id="BYghL89uylHXPIeEzwu4-15" value="&lt;span style=&quot;font-size: 7px&quot;&gt;leicht verletzen()&lt;/span&gt;" style="text;html=1;strokeColor=none;fillColor=none;align=center;verticalAlign=middle;whiteSpace=wrap;rounded=0;" vertex="1" parent="1">
          <mxGeometry x="300" y="340" width="60" height="30" as="geometry" />
        </mxCell>
        <mxCell id="BYghL89uylHXPIeEzwu4-17" value="" style="endArrow=none;dashed=1;html=1;rounded=0;exitX=0.5;exitY=0;exitDx=0;exitDy=0;" edge="1" parent="1" source="BYghL89uylHXPIeEzwu4-11">
          <mxGeometry width="50" height="50" relative="1" as="geometry">
            <mxPoint x="374.65999999999985" y="320" as="sourcePoint" />
            <mxPoint x="374.65999999999985" y="260" as="targetPoint" />
          </mxGeometry>
        </mxCell>
        <mxCell id="BYghL89uylHXPIeEzwu4-19" value="" style="endArrow=classic;html=1;rounded=0;fontSize=7;entryX=0.903;entryY=0.594;entryDx=0;entryDy=0;entryPerimeter=0;exitX=0;exitY=0.5;exitDx=0;exitDy=0;" edge="1" parent="1" source="BYghL89uylHXPIeEzwu4-11" target="BYghL89uylHXPIeEzwu4-9">
          <mxGeometry width="50" height="50" relative="1" as="geometry">
            <mxPoint x="340" y="380" as="sourcePoint" />
            <mxPoint x="519.9999999999999" y="370" as="targetPoint" />
          </mxGeometry>
        </mxCell>
        <mxCell id="BYghL89uylHXPIeEzwu4-20" value="&lt;span style=&quot;font-size: 7px&quot;&gt;setZustand(&quot;Verwundet&quot;)&lt;/span&gt;" style="text;html=1;strokeColor=none;fillColor=none;align=center;verticalAlign=middle;whiteSpace=wrap;rounded=0;" vertex="1" parent="1">
          <mxGeometry x="300" y="355" width="60" height="30" as="geometry" />
        </mxCell>
        <mxCell id="BYghL89uylHXPIeEzwu4-21" value="" style="endArrow=open;dashed=1;html=1;rounded=0;fontSize=7;exitX=1;exitY=0.75;exitDx=0;exitDy=0;startArrow=none;startFill=0;endFill=0;" edge="1" parent="1" source="BYghL89uylHXPIeEzwu4-9">
          <mxGeometry width="50" height="50" relative="1" as="geometry">
            <mxPoint x="290" y="300" as="sourcePoint" />
            <mxPoint x="370" y="385" as="targetPoint" />
          </mxGeometry>
        </mxCell>
        <mxCell id="BYghL89uylHXPIeEzwu4-23" value="" style="endArrow=none;dashed=1;html=1;rounded=0;fontSize=7;exitX=1;exitY=0.75;exitDx=0;exitDy=0;startArrow=open;startFill=0;" edge="1" parent="1">
          <mxGeometry width="50" height="50" relative="1" as="geometry">
            <mxPoint x="279.9999999999999" y="395" as="sourcePoint" />
            <mxPoint x="369.9999999999999" y="395" as="targetPoint" />
          </mxGeometry>
        </mxCell>
        <mxCell id="BYghL89uylHXPIeEzwu4-24" value="" style="endArrow=none;dashed=1;html=1;rounded=0;fontSize=7;exitX=1;exitY=0.75;exitDx=0;exitDy=0;startArrow=open;startFill=0;" edge="1" parent="1" source="BYghL89uylHXPIeEzwu4-6">
          <mxGeometry width="50" height="50" relative="1" as="geometry">
            <mxPoint x="179.9999999999999" y="400" as="sourcePoint" />
            <mxPoint x="269.9999999999999" y="400" as="targetPoint" />
          </mxGeometry>
        </mxCell>
        <mxCell id="BYghL89uylHXPIeEzwu4-25" value="" style="endArrow=none;dashed=1;html=1;rounded=0;exitX=0.5;exitY=0;exitDx=0;exitDy=0;" edge="1" parent="1">
          <mxGeometry width="50" height="50" relative="1" as="geometry">
            <mxPoint x="274.6599999999999" y="480" as="sourcePoint" />
            <mxPoint x="274.6599999999999" y="400" as="targetPoint" />
          </mxGeometry>
        </mxCell>
        <mxCell id="BYghL89uylHXPIeEzwu4-26" value="" style="endArrow=none;dashed=1;html=1;rounded=0;exitX=0.5;exitY=0;exitDx=0;exitDy=0;" edge="1" parent="1">
          <mxGeometry width="50" height="50" relative="1" as="geometry">
            <mxPoint x="164.65999999999988" y="500" as="sourcePoint" />
            <mxPoint x="164.65999999999988" y="420" as="targetPoint" />
          </mxGeometry>
        </mxCell>
        <mxCell id="BYghL89uylHXPIeEzwu4-27" value="" style="endArrow=none;dashed=1;html=1;rounded=0;exitX=0.5;exitY=0;exitDx=0;exitDy=0;" edge="1" parent="1">
          <mxGeometry width="50" height="50" relative="1" as="geometry">
            <mxPoint x="374.65999999999985" y="480" as="sourcePoint" />
            <mxPoint x="374.65999999999985" y="400" as="targetPoint" />
          </mxGeometry>
        </mxCell>
      </root>
    </mxGraphModel>
  </diagram>
</mxfile>
